<svg xmlns="http://www.w3.org/2000/svg" viewBox="0 0 800 560" width="100%" height="100%">
  <rect x="0" y="0" width="800" height="560" fill="#c9c6a3"/>
  <rect x="0"   y="0"   width="160" height="140" fill="#b5be88"/>
  <rect x="160" y="0"   width="160" height="140" fill="#cec99c"/>
  <rect x="320" y="0"   width="160" height="140" fill="#a9b87c"/>
  <rect x="480" y="0"   width="160" height="140" fill="#d2cc98"/>
  <rect x="640" y="0"   width="160" height="140" fill="#bcc48a"/>
  <rect x="0"   y="140" width="160" height="140" fill="#ccc894"/>
  <rect x="160" y="140" width="160" height="140" fill="#b0bc80"/>
  <rect x="320" y="140" width="160" height="140" fill="#d4ce9e"/>
  <rect x="480" y="140" width="160" height="140" fill="#b8c286"/>
  <rect x="640" y="140" width="160" height="140" fill="#c8c490"/>
  <rect x="0"   y="280" width="160" height="140" fill="#b4ba7e"/>
  <rect x="160" y="280" width="160" height="140" fill="#d0cb96"/>
  <rect x="320" y="280" width="160" height="140" fill="#bcc488"/>
  <rect x="480" y="280" width="160" height="140" fill="#c6c090"/>
  <rect x="640" y="280" width="160" height="140" fill="#adb87c"/>
  <rect x="0"   y="420" width="160" height="140" fill="#cbc894"/>
  <rect x="160" y="420" width="160" height="140" fill="#b6be84"/>
  <rect x="320" y="420" width="160" height="140" fill="#d2cc9a"/>
  <rect x="480" y="420" width="160" height="140" fill="#b2be80"/>
  <rect x="640" y="420" width="160" height="140" fill="#c4c08c"/>
  <g stroke="#a9b070" stroke-width="0.7" opacity="0.5">
    <line x1="0" y1="8" x2="160" y2="8"/><line x1="0" y1="18" x2="160" y2="18"/>
    <line x1="0" y1="28" x2="160" y2="28"/><line x1="0" y1="38" x2="160" y2="38"/>
    <line x1="0" y1="48" x2="160" y2="48"/><line x1="0" y1="58" x2="160" y2="58"/>
    <line x1="0" y1="68" x2="160" y2="68"/><line x1="0" y1="78" x2="160" y2="78"/>
    <line x1="0" y1="88" x2="160" y2="88"/><line x1="0" y1="98" x2="160" y2="98"/>
    <line x1="0" y1="108" x2="160" y2="108"/><line x1="0" y1="118" x2="160" y2="118"/>
    <line x1="0" y1="128" x2="160" y2="128"/>
  </g>
  <g stroke="#a9b070" stroke-width="0.7" opacity="0.5">
    <line x1="320" y1="288" x2="480" y2="288"/><line x1="320" y1="298" x2="480" y2="298"/>
    <line x1="320" y1="308" x2="480" y2="308"/><line x1="320" y1="318" x2="480" y2="318"/>
    <line x1="320" y1="328" x2="480" y2="328"/><line x1="320" y1="338" x2="480" y2="338"/>
    <line x1="320" y1="348" x2="480" y2="348"/><line x1="320" y1="358" x2="480" y2="358"/>
    <line x1="320" y1="368" x2="480" y2="368"/><line x1="320" y1="378" x2="480" y2="378"/>
    <line x1="320" y1="388" x2="480" y2="388"/><line x1="320" y1="398" x2="480" y2="398"/>
    <line x1="320" y1="408" x2="480" y2="408"/>
  </g>
  <g stroke="#9a9474" stroke-width="3" opacity="0.6">
    <line x1="160" y1="0" x2="160" y2="560"/>
    <line x1="320" y1="0" x2="320" y2="560"/>
    <line x1="480" y1="0" x2="480" y2="560"/>
    <line x1="640" y1="0" x2="640" y2="560"/>
    <line x1="0" y1="140" x2="800" y2="140"/>
    <line x1="0" y1="280" x2="800" y2="280"/>
    <line x1="0" y1="420" x2="800" y2="420"/>
  </g>
  <polygon points="172,152 308,148 312,272 168,276" fill="#4a6fd4" fill-opacity="0.18"/>
  <polygon points="172,152 308,148 312,272 168,276" fill="none" stroke="#4a6fd4" stroke-width="2.5" stroke-linejoin="round"/>
  <circle cx="172" cy="152" r="5" fill="#fff" stroke="#4a6fd4" stroke-width="2"/>
  <circle cx="308" cy="148" r="5" fill="#fff" stroke="#4a6fd4" stroke-width="2"/>
  <circle cx="312" cy="272" r="5" fill="#fff" stroke="#4a6fd4" stroke-width="2"/>
  <circle cx="168" cy="276" r="5" fill="#fff" stroke="#4a6fd4" stroke-width="2"/>
  <polygon points="332,158 468,152 472,268 328,274" fill="#4a6fd4" fill-opacity="0.14"/>
  <polygon points="332,158 468,152 472,268 328,274" fill="none" stroke="#4a6fd4" stroke-width="2.5" stroke-linejoin="round"/>
  <circle cx="332" cy="158" r="5" fill="#fff" stroke="#4a6fd4" stroke-width="2"/>
  <circle cx="468" cy="152" r="5" fill="#fff" stroke="#4a6fd4" stroke-width="2"/>
  <circle cx="472" cy="268" r="5" fill="#fff" stroke="#4a6fd4" stroke-width="2"/>
  <circle cx="328" cy="274" r="5" fill="#fff" stroke="#4a6fd4" stroke-width="2"/>
  <polyline points="492,292 628,288 632,408" fill="none" stroke="#4a6fd4" stroke-width="2.5" stroke-linecap="round" stroke-linejoin="round"/>
  <circle cx="492" cy="292" r="5" fill="#fff" stroke="#4a6fd4" stroke-width="2"/>
  <circle cx="628" cy="288" r="5" fill="#fff" stroke="#4a6fd4" stroke-width="2"/>
  <circle cx="632" cy="408" r="5" fill="#fff" stroke="#4a6fd4" stroke-width="2"/>
  <line x1="632" y1="408" x2="492" y2="292" stroke="#4a6fd4" stroke-width="2" stroke-dasharray="7,5" stroke-linecap="round" opacity="0.55"/>
  <g fill="#4a6fd4" opacity="0.8">
    <circle cx="492" cy="406" r="2.5"/><circle cx="506" cy="407" r="2.5"/>
    <circle cx="520" cy="407" r="2.5"/><circle cx="534" cy="408" r="2.5"/>
    <circle cx="548" cy="408" r="2.5"/><circle cx="562" cy="408" r="2.5"/>
    <circle cx="576" cy="408" r="2.5"/><circle cx="590" cy="408" r="2.5"/>
    <circle cx="604" cy="408" r="2.5"/><circle cx="618" cy="408" r="2.5"/>
    <circle cx="632" cy="408" r="2.5"/>
  </g>
  <circle cx="492" cy="406" r="9" fill="#4a6fd4" fill-opacity="0.2"/>
  <circle cx="492" cy="406" r="5" fill="#4a6fd4"/>
  <circle cx="492" cy="406" r="2" fill="#fff"/>
  <rect x="20" y="20" width="148" height="88" rx="8" fill="#fff" fill-opacity="0.92"/>
  <text x="36" y="42" font-family="'Helvetica Neue',Arial,sans-serif" font-size="10" fill="#888">Perimeter recording</text>
  <text x="36" y="68" font-family="'Helvetica Neue',Arial,sans-serif" font-size="26" font-weight="700" fill="#1a1a1a">3.5 mph</text>
  <text x="36" y="90" font-family="'Helvetica Neue',Arial,sans-serif" font-size="10" fill="#4caf50">● RTK</text>
  <text x="72" y="90" font-family="'Helvetica Neue',Arial,sans-serif" font-size="10" fill="#4caf50">● System</text>
  <rect x="20" y="118" width="148" height="34" rx="6" fill="#fff" fill-opacity="0.92" stroke="#ddd" stroke-width="1"/>
  <text x="94" y="139" text-anchor="middle" font-family="'Helvetica Neue',Arial,sans-serif" font-size="13" font-weight="600" fill="#e53935">Stop</text>
</svg>
