<svg xmlns="http://www.w3.org/2000/svg" viewBox="0 0 960 560" width="100%" height="100%">
  <defs>
    <linearGradient id="redBar" x1="0" y1="0" x2="1" y2="0">
      <stop offset="0%" stop-color="#ef4444"/>
      <stop offset="100%" stop-color="#f97316"/>
    </linearGradient>
    <linearGradient id="greenBar" x1="0" y1="0" x2="1" y2="0">
      <stop offset="0%" stop-color="#22c55e"/>
      <stop offset="100%" stop-color="#16a34a"/>
    </linearGradient>
  </defs>
  <rect x="0" y="0" width="960" height="560" fill="#f8f9fa"/>
  <rect x="0" y="0" width="960" height="60" fill="#fff" stroke="#e5e7eb" stroke-width="1"/>
  <text x="32" y="24" font-family="'Helvetica Neue',Arial,sans-serif" font-size="11" font-weight="600" fill="#6b7280" letter-spacing="1">NETWORK STATUS</text>
  <circle cx="32" cy="40" r="5" fill="#22c55e"/>
  <text x="44" y="44" font-family="'Helvetica Neue',Arial,sans-serif" font-size="14" font-weight="700" fill="#111">All Systems Operational</text>
  <text x="800" y="36" text-anchor="end" font-family="'Helvetica Neue',Arial,sans-serif" font-size="12" fill="#9ca3af">Last 90 days</text>
  <rect x="32" y="76" width="196" height="72" rx="8" fill="#fff" stroke="#e5e7eb" stroke-width="1"/>
  <text x="52" y="104" font-family="'Helvetica Neue',Arial,sans-serif" font-size="11" fill="#9ca3af">UPTIME</text>
  <text x="52" y="130" font-family="'Helvetica Neue',Arial,sans-serif" font-size="26" font-weight="700" fill="#111">99.97%</text>
  <rect x="244" y="76" width="196" height="72" rx="8" fill="#fff" stroke="#e5e7eb" stroke-width="1"/>
  <text x="264" y="104" font-family="'Helvetica Neue',Arial,sans-serif" font-size="11" fill="#9ca3af">INCIDENTS</text>
  <text x="264" y="130" font-family="'Helvetica Neue',Arial,sans-serif" font-size="26" font-weight="700" fill="#ef4444">3</text>
  <rect x="456" y="76" width="196" height="72" rx="8" fill="#fff" stroke="#e5e7eb" stroke-width="1"/>
  <text x="476" y="104" font-family="'Helvetica Neue',Arial,sans-serif" font-size="11" fill="#9ca3af">AVG RECOVERY</text>
  <text x="476" y="130" font-family="'Helvetica Neue',Arial,sans-serif" font-size="26" font-weight="700" fill="#111">14 min</text>
  <rect x="668" y="76" width="196" height="72" rx="8" fill="#fff" stroke="#e5e7eb" stroke-width="1"/>
  <text x="688" y="104" font-family="'Helvetica Neue',Arial,sans-serif" font-size="11" fill="#9ca3af">AFFECTED REGIONS</text>
  <text x="688" y="130" font-family="'Helvetica Neue',Arial,sans-serif" font-size="26" font-weight="700" fill="#111">2</text>
  <rect x="32" y="168" width="600" height="360" rx="10" fill="#fff" stroke="#e5e7eb" stroke-width="1"/>
  <text x="52" y="196" font-family="'Helvetica Neue',Arial,sans-serif" font-size="13" font-weight="700" fill="#111">Components</text>
  <text x="52" y="228" font-family="'Helvetica Neue',Arial,sans-serif" font-size="13" fill="#374151">Core Routing</text>
  <rect x="240" y="214" width="320" height="16" rx="3" fill="#dcfce7"/>
  <rect x="240" y="214" width="316" height="16" rx="3" fill="url(#greenBar)" fill-opacity="0.7"/>
  <rect x="540" y="210" width="60" height="24" rx="12" fill="#dcfce7"/>
  <text x="570" y="226" text-anchor="middle" font-family="'Helvetica Neue',Arial,sans-serif" font-size="10" font-weight="600" fill="#16a34a">Operational</text>
  <rect x="36" y="242" width="588" height="46" rx="6" fill="#fff5f5"/>
  <text x="52" y="270" font-family="'Helvetica Neue',Arial,sans-serif" font-size="13" fill="#374151">Data Center — EU West</text>
  <rect x="240" y="256" width="320" height="16" rx="3" fill="#dcfce7"/>
  <rect x="240" y="256" width="220" height="16" rx="3" fill="url(#greenBar)" fill-opacity="0.7"/>
  <rect x="464" y="256" width="60" height="16" rx="3" fill="#fca5a5"/>
  <rect x="528" y="256" width="32" height="16" rx="3" fill="url(#greenBar)" fill-opacity="0.6"/>
  <rect x="540" y="252" width="60" height="24" rx="12" fill="#fee2e2"/>
  <text x="570" y="268" text-anchor="middle" font-family="'Helvetica Neue',Arial,sans-serif" font-size="10" font-weight="600" fill="#dc2626">Outage</text>
  <text x="52" y="314" font-family="'Helvetica Neue',Arial,sans-serif" font-size="13" fill="#374151">API Gateway</text>
  <rect x="240" y="300" width="320" height="16" rx="3" fill="#dcfce7"/>
  <rect x="240" y="300" width="280" height="16" rx="3" fill="url(#greenBar)" fill-opacity="0.7"/>
  <rect x="524" y="300" width="36" height="16" rx="3" fill="#fed7aa"/>
  <rect x="540" y="296" width="60" height="24" rx="12" fill="#fff7ed"/>
  <text x="570" y="312" text-anchor="middle" font-family="'Helvetica Neue',Arial,sans-serif" font-size="10" font-weight="600" fill="#ea580c">Degraded</text>
  <text x="52" y="356" font-family="'Helvetica Neue',Arial,sans-serif" font-size="13" fill="#374151">DNS Resolution</text>
  <rect x="240" y="342" width="320" height="16" rx="3" fill="#dcfce7"/>
  <rect x="240" y="342" width="318" height="16" rx="3" fill="url(#greenBar)" fill-opacity="0.7"/>
  <rect x="540" y="338" width="60" height="24" rx="12" fill="#dcfce7"/>
  <text x="570" y="354" text-anchor="middle" font-family="'Helvetica Neue',Arial,sans-serif" font-size="10" font-weight="600" fill="#16a34a">Operational</text>
  <text x="52" y="398" font-family="'Helvetica Neue',Arial,sans-serif" font-size="13" fill="#374151">Load Balancer</text>
  <rect x="240" y="384" width="320" height="16" rx="3" fill="#dcfce7"/>
  <rect x="240" y="384" width="318" height="16" rx="3" fill="url(#greenBar)" fill-opacity="0.7"/>
  <rect x="540" y="380" width="60" height="24" rx="12" fill="#dcfce7"/>
  <text x="570" y="396" text-anchor="middle" font-family="'Helvetica Neue',Arial,sans-serif" font-size="10" font-weight="600" fill="#16a34a">Operational</text>
  <text x="52" y="440" font-family="'Helvetica Neue',Arial,sans-serif" font-size="13" fill="#374151">CDN Edge Nodes</text>
  <rect x="240" y="426" width="320" height="16" rx="3" fill="#dcfce7"/>
  <rect x="240" y="426" width="310" height="16" rx="3" fill="url(#greenBar)" fill-opacity="0.7"/>
  <rect x="540" y="422" width="60" height="24" rx="12" fill="#dcfce7"/>
  <text x="570" y="438" text-anchor="middle" font-family="'Helvetica Neue',Arial,sans-serif" font-size="10" font-weight="600" fill="#16a34a">Operational</text>
  <text x="240" y="482" font-family="'Helvetica Neue',Arial,sans-serif" font-size="10" fill="#d1d5db">90 days ago</text>
  <text x="560" y="482" text-anchor="end" font-family="'Helvetica Neue',Arial,sans-serif" font-size="10" fill="#d1d5db">Today</text>
  <rect x="652" y="168" width="276" height="360" rx="10" fill="#fff" stroke="#e5e7eb" stroke-width="1"/>
  <text x="672" y="196" font-family="'Helvetica Neue',Arial,sans-serif" font-size="13" font-weight="700" fill="#111">Incident #INC-2847</text>
  <rect x="672" y="204" width="88" height="20" rx="10" fill="#fee2e2"/>
  <text x="716" y="218" text-anchor="middle" font-family="'Helvetica Neue',Arial,sans-serif" font-size="10" font-weight="600" fill="#dc2626">Investigating</text>
  <text x="672" y="246" font-family="'Helvetica Neue',Arial,sans-serif" font-size="11" fill="#9ca3af">COMPONENT</text>
  <text x="672" y="262" font-family="'Helvetica Neue',Arial,sans-serif" font-size="13" font-weight="500" fill="#111">Data Center — EU West</text>
  <text x="672" y="288" font-family="'Helvetica Neue',Arial,sans-serif" font-size="11" fill="#9ca3af">STARTED</text>
  <text x="672" y="304" font-family="'Helvetica Neue',Arial,sans-serif" font-size="13" font-weight="500" fill="#111">Today, 14:32 UTC</text>
  <text x="672" y="330" font-family="'Helvetica Neue',Arial,sans-serif" font-size="11" fill="#9ca3af">IMPACT</text>
  <text x="672" y="346" font-family="'Helvetica Neue',Arial,sans-serif" font-size="12" fill="#374151">Partial service disruption</text>
  <text x="672" y="360" font-family="'Helvetica Neue',Arial,sans-serif" font-size="12" fill="#374151">in EU West region.</text>
  <line x1="680" y1="390" x2="680" y2="500" stroke="#e5e7eb" stroke-width="1.5"/>
  <circle cx="680" cy="394" r="4" fill="#ef4444"/>
  <text x="694" y="398" font-family="'Helvetica Neue',Arial,sans-serif" font-size="11" font-weight="600" fill="#111">14:32</text>
  <text x="694" y="412" font-family="'Helvetica Neue',Arial,sans-serif" font-size="11" fill="#6b7280">Incident identified</text>
  <circle cx="680" cy="440" r="4" fill="#f97316"/>
  <text x="694" y="444" font-family="'Helvetica Neue',Arial,sans-serif" font-size="11" font-weight="600" fill="#111">14:38</text>
  <text x="694" y="458" font-family="'Helvetica Neue',Arial,sans-serif" font-size="11" fill="#6b7280">Team notified, investigating</text>
  <circle cx="680" cy="486" r="4" fill="#d1d5db"/>
  <text x="694" y="490" font-family="'Helvetica Neue',Arial,sans-serif" font-size="11" fill="#9ca3af">Update pending...</text>
</svg>
